<?xml version="1.0" encoding="UTF-8"?>
<!DOCTYPE svg PUBLIC "-//W3C//DTD SVG 1.1//EN" "http://www.w3.org/Graphics/SVG/1.1/DTD/svg11.dtd">
<!-- Creator: CorelDRAW 2017 -->
<svg xmlns="http://www.w3.org/2000/svg" xml:space="preserve" width="205px" height="150px" version="1.1" shape-rendering="geometricPrecision" text-rendering="geometricPrecision" image-rendering="optimizeQuality" fill-rule="evenodd" clip-rule="evenodd"
viewBox="0 0 20187 14781"
 xmlns:xlink="http://www.w3.org/1999/xlink">
 <g id="Layer_x0020_1">
  <metadata id="CorelCorpID_0Corel-Layer"/>
  <path fill="#D9D9D9" d="M20062 9075c0,0 -119,-1782 -119,-2613 0,-743 -285,-1508 -727,-1747 -585,-1279 -2663,-1215 -3526,-1215 -1009,0 -3234,-60 -4214,-60 -980,0 -3119,-281 -4247,-608 -1128,-326 -1856,-935 -2004,-757 -148,178 -445,386 -861,327 861,-327 802,-1247 683,-1366 -119,-119 -594,-148 -1039,386 267,-505 -238,-1187 -505,-1336 -267,-148 -534,-89 -326,59 207,149 326,802 29,1069 0,0 -920,564 -1098,683 -178,119 -1306,1574 -1514,1692 -208,119 -594,327 -594,446 0,118 445,1024 683,1024 237,0 2093,222 3251,312 0,0 742,1203 1113,2271 201,578 416,1792 683,2270 564,1009 1306,1870 1306,2405 0,534 0,1721 0,1721l-326 565c0,0 237,148 683,148 445,0 504,-327 504,-475 0,-148 0,-2226 0,-2226 0,0 -119,-565 -119,-921 0,-356 476,-2256 505,-2523 0,0 59,653 59,831 0,0 1384,479 2094,550 1187,119 2018,357 3740,178 1393,-144 2496,-966 2496,-966 0,0 -119,-564 30,-861 237,1663 1603,2821 1603,2910 0,89 -210,2762 -210,2762l-267 623c0,0 91,148 536,148 446,0 594,-268 594,-594 0,-327 593,-3117 623,-3325 30,-208 -178,-1693 -237,-1841 -47,-116 -2,-2046 20,-3012 256,862 287,2277 223,2709 -134,905 237,1781 237,1781 0,0 119,297 297,-356 178,-653 -59,-1068 -59,-1068z"/>
 </g>
</svg>
