<?xml version="1.0" encoding="UTF-8"?>
<!DOCTYPE svg PUBLIC "-//W3C//DTD SVG 1.1//EN" "http://www.w3.org/Graphics/SVG/1.1/DTD/svg11.dtd">
<!-- Creator: CorelDRAW 2017 -->
<svg xmlns="http://www.w3.org/2000/svg" xml:space="preserve" width="86px" height="100px" version="1.1" shape-rendering="geometricPrecision" text-rendering="geometricPrecision" image-rendering="optimizeQuality" fill-rule="evenodd" clip-rule="evenodd"
viewBox="0 0 20712 24168"
 xmlns:xlink="http://www.w3.org/1999/xlink">
 <g id="Layer_x0020_1">
  <metadata id="CorelCorpID_0Corel-Layer"/>
  <path fill="#D9D9D9" d="M55 2640c461,-316 461,-316 704,-777 128,-243 174,-492 205,-657 29,-154 44,-232 123,-232 21,0 38,8 52,18 11,-34 24,-81 33,-116 44,-162 85,-314 197,-314l13 0c117,14 135,136 146,208 1,4 1,9 2,14 23,-48 38,-143 48,-206 24,-145 49,-296 169,-296 115,0 144,118 161,188 3,14 8,32 12,46 47,-40 69,-148 88,-237 27,-131 58,-279 187,-279 37,0 70,13 96,39 59,60 59,171 59,268 -1,17 -1,39 0,58 21,-17 46,-37 65,-53 110,-93 188,-153 261,-153 25,0 106,9 119,127 14,127 -58,258 -122,374 -31,56 -82,148 -73,173 27,14 85,27 152,42 245,56 700,160 1023,604 149,204 352,385 567,576 362,322 736,655 943,1165 144,355 308,974 481,1629 215,812 437,1652 616,1941 559,906 1914,1366 4029,1366 652,0 1230,-46 1575,-73 119,-9 214,-16 279,-20 331,-113 576,-300 729,-555 315,-523 836,-1780 1340,-2996 952,-2299 1281,-3015 1479,-3015l10 1c156,14 195,139 201,250 31,-49 62,-99 79,-127 284,-462 611,-715 920,-715 143,0 278,56 389,163 266,257 320,445 363,595 34,122 60,210 184,311 37,31 133,55 235,80 291,73 731,184 759,666 34,595 203,812 338,987 142,182 265,340 172,791 -67,323 -69,409 284,921 333,484 1409,2721 763,3695 -216,325 -144,637 -34,1108 180,776 453,1949 -439,4152 -521,1286 -1572,2083 -2200,2559 -119,90 -223,168 -307,238 -502,415 -1753,1028 -2842,1028 -248,0 -479,-36 -687,-98 -227,-69 -498,175 -856,509 -494,463 -1176,1091 -2259,1389 -135,470 -226,806 -227,860 10,116 321,288 650,471 235,130 358,273 329,383 -21,81 -114,114 -233,77 -32,-10 -63,-21 -94,-32 -109,-39 -221,-79 -392,-79 -109,0 -231,16 -372,49 -264,62 -331,150 -402,243 -69,91 -148,193 -386,259 -90,25 -188,47 -292,71 -403,93 -861,199 -1000,481 -17,35 -28,63 -36,86 -19,50 -42,113 -121,113 -22,0 -46,-6 -82,-17 -95,-31 -189,-127 -229,-235 -35,-96 -26,-194 25,-278 83,-135 220,-250 365,-343 -119,17 -246,30 -378,33 -549,13 -942,110 -1199,193 74,119 321,287 580,464 221,151 329,299 295,406 -25,82 -123,110 -241,61 -30,-13 -60,-27 -91,-41 -126,-58 -257,-119 -497,-119 -78,0 -166,7 -260,20 -269,38 -344,119 -423,205 -78,84 -165,179 -408,222 -93,17 -192,30 -297,45 -411,55 -876,119 -1041,387 -20,32 -33,60 -44,82 -22,47 -48,101 -118,101 -25,0 -52,-7 -93,-24 -91,-40 -176,-144 -206,-255 -26,-99 -8,-196 51,-275 95,-127 241,-229 395,-308 -122,6 -257,7 -380,-2 -110,-7 -219,-11 -326,-11 -555,0 -931,101 -1111,150 -73,20 -112,30 -142,30 -42,0 -62,-22 -70,-36 -9,-13 -20,-42 -1,-79 86,-173 246,-359 826,-550 198,-66 555,-96 870,-123 164,-15 357,-31 470,-51 -63,-22 -134,-35 -187,-45 -82,-14 -141,-25 -143,-89 -1,-73 58,-87 343,-149 112,-25 219,-37 326,-37 130,0 236,18 322,33 88,15 158,25 201,10 118,-121 761,-1515 1313,-2750 -266,-97 -537,-206 -815,-329 -120,-32 -231,-49 -340,-81 -1937,-571 -4970,-2853 -5387,-6799 -452,-4276 447,-5910 742,-6447 405,-736 720,-1672 392,-2088 -290,-367 -269,-820 -258,-1063 2,-49 4,-103 2,-132 -5,-1 -13,-1 -23,-1 -109,0 -329,39 -522,74 -179,32 -334,59 -410,59 -21,0 -85,0 -102,-57 -12,-37 5,-72 51,-103zm9511 17531c-575,0 -1199,-86 -1866,-259 -289,718 -580,1448 -753,1904 60,-31 125,-61 198,-93 191,-83 543,-147 854,-202 163,-30 354,-64 465,-94 -66,-16 -138,-23 -191,-27 -83,-7 -143,-13 -150,-76 -9,-73 49,-92 327,-180 153,-49 302,-73 455,-73 72,0 135,5 190,9 42,4 79,6 111,6 40,0 68,-4 90,-14 50,-62 189,-414 369,-902 -33,0 -65,1 -98,1 0,0 -1,0 -1,0zm-1256 2743l0 0 0 1 0 -1z"/>
 </g>
</svg>
