<?xml version="1.0" encoding="UTF-8"?>
<!DOCTYPE svg PUBLIC "-//W3C//DTD SVG 1.1//EN" "http://www.w3.org/Graphics/SVG/1.1/DTD/svg11.dtd">
<!-- Creator: CorelDRAW 2017 -->
<svg xmlns="http://www.w3.org/2000/svg" xml:space="preserve" width="129px" height="150px" version="1.1" shape-rendering="geometricPrecision" text-rendering="geometricPrecision" image-rendering="optimizeQuality" fill-rule="evenodd" clip-rule="evenodd"
viewBox="0 0 31068 36252"
 xmlns:xlink="http://www.w3.org/1999/xlink">
 <g id="Layer_x0020_1">
  <metadata id="CorelCorpID_0Corel-Layer"/>
  <path fill="#1B1B1B" d="M82 3960c693,-474 693,-474 1057,-1166 191,-364 261,-737 307,-985 44,-232 66,-348 185,-348 31,0 57,12 77,27 18,-52 36,-121 51,-174 65,-242 127,-472 295,-472l19 1c175,21 203,203 219,312 1,7 2,13 3,20 34,-71 57,-214 73,-307 35,-219 72,-445 253,-445 171,0 215,176 241,282 5,20 12,47 18,68 70,-59 104,-221 132,-354 41,-197 87,-419 280,-419 56,0 106,20 144,58 89,90 89,256 88,403 0,25 0,57 1,86 32,-24 69,-55 97,-79 166,-139 282,-230 392,-230 37,0 159,14 179,191 21,190 -88,387 -184,561 -46,83 -122,222 -109,259 41,21 128,41 228,64 367,83 1051,239 1535,906 223,306 528,577 850,864 543,483 1104,983 1415,1748 216,532 462,1460 722,2443 322,1218 655,2477 922,2911 839,1359 2873,2049 6044,2049 978,0 1845,-68 2363,-109 178,-14 321,-25 418,-30 496,-171 864,-451 1094,-833 472,-785 1254,-2670 2009,-4494 1429,-3449 1922,-4522 2219,-4522l15 0c235,23 293,210 302,375 47,-72 92,-147 119,-190 426,-692 916,-1073 1380,-1073 214,0 416,85 582,246 400,385 480,666 545,892 52,183 90,315 276,467 55,46 200,82 353,120 436,110 1097,275 1138,998 51,892 304,1218 508,1481 213,274 396,510 257,1186 -100,485 -103,614 426,1382 500,726 2114,4081 1144,5542 -323,489 -215,956 -51,1663 271,1164 680,2923 -658,6227 -782,1930 -2357,3124 -3299,3838 -180,137 -335,253 -461,357 -754,623 -2630,1543 -4263,1543 -372,0 -719,-54 -1030,-148 -342,-103 -748,264 -1284,765 -742,693 -1764,1636 -3388,2083 -203,704 -340,1209 -342,1290 16,174 482,433 975,706 352,196 537,410 495,574 -32,122 -172,172 -351,116 -47,-15 -93,-32 -141,-48 -162,-58 -331,-118 -587,-118 -164,0 -347,24 -558,73 -397,94 -497,225 -604,365 -104,136 -221,290 -578,388 -136,37 -283,71 -438,107 -606,140 -1292,299 -1501,722 -26,51 -41,94 -54,129 -28,75 -62,168 -181,168 -33,0 -70,-7 -124,-25 -142,-46 -283,-191 -342,-352 -53,-144 -40,-292 37,-417 125,-203 329,-375 548,-515 -178,26 -370,45 -567,50 -823,20 -1414,165 -1800,290 112,177 482,430 872,696 331,225 492,447 442,609 -38,123 -184,165 -362,91 -46,-19 -90,-40 -136,-61 -190,-88 -386,-179 -746,-179 -118,0 -249,10 -391,30 -403,56 -515,178 -634,307 -116,126 -247,269 -612,334 -139,24 -288,45 -445,66 -616,84 -1314,179 -1562,581 -30,49 -49,90 -65,123 -34,72 -73,152 -178,152 -37,0 -77,-10 -138,-37 -138,-59 -265,-216 -309,-382 -40,-148 -13,-294 75,-412 143,-190 363,-343 593,-463 -183,11 -385,11 -569,-2 -165,-11 -330,-17 -490,-17 -833,0 -1396,153 -1667,226 -108,29 -168,45 -212,45 -63,0 -94,-34 -106,-54 -13,-21 -30,-63 -1,-119 129,-259 369,-539 1239,-825 297,-99 832,-145 1304,-185 247,-22 537,-46 707,-76 -96,-33 -202,-53 -282,-67 -123,-22 -212,-38 -214,-135 -2,-109 87,-129 515,-223 168,-37 327,-55 488,-55 196,0 355,27 483,49 133,23 238,38 302,15 176,-181 1142,-2273 1969,-4125 -399,-146 -806,-309 -1221,-493 -181,-48 -348,-74 -511,-121 -2905,-857 -7455,-4280 -8081,-10199 -678,-6414 670,-8865 1113,-9670 608,-1105 1081,-2508 588,-3133 -434,-550 -404,-1229 -387,-1594 3,-73 7,-155 4,-199 -9,0 -20,-1 -35,-1 -164,0 -493,59 -784,111 -268,48 -499,89 -614,89 -31,0 -127,0 -154,-85 -17,-56 9,-108 77,-155zm14267 26297c-862,0 -1798,-129 -2798,-389 -435,1077 -871,2172 -1130,2855 89,-45 187,-91 296,-139 287,-125 816,-219 1282,-303 243,-44 530,-96 696,-141 -97,-24 -206,-34 -286,-40 -124,-11 -214,-19 -225,-115 -12,-109 74,-136 492,-270 229,-73 452,-109 682,-109 108,0 201,8 284,14 64,5 119,9 168,9 60,0 102,-6 134,-21 75,-93 284,-620 553,-1353 -49,1 -97,2 -147,2 0,0 0,0 -1,0zm-1884 4114l0 0 0 1 0 -1z"/>
 </g>
</svg>
