<?xml version="1.0" encoding="UTF-8"?>
<!DOCTYPE svg PUBLIC "-//W3C//DTD SVG 1.1//EN" "http://www.w3.org/Graphics/SVG/1.1/DTD/svg11.dtd">
<!-- Creator: CorelDRAW 2017 -->
<svg xmlns="http://www.w3.org/2000/svg" xml:space="preserve" width="320px" height="150px" version="1.1" shape-rendering="geometricPrecision" text-rendering="geometricPrecision" image-rendering="optimizeQuality" fill-rule="evenodd" clip-rule="evenodd"
viewBox="0 0 31508 14760"
 xmlns:xlink="http://www.w3.org/1999/xlink">
 <g id="Layer_x0020_1">
  <metadata id="CorelCorpID_0Corel-Layer"/>
  <g id="_2230003355376">
   <path fill="#D9D9D9" d="M7434 2046c-3546,1121 -6231,3144 -7434,4911 1213,1785 3936,3826 7528,4942 902,-1399 1426,-3063 1426,-4852 0,-1853 -560,-3572 -1520,-5001zm-2603 5132c-513,0 -927,-415 -927,-927 0,-513 414,-927 927,-927 512,0 928,414 928,927 0,512 -416,927 -928,927z"/>
   <path fill="#D9D9D9" d="M30610 7088c-64,-199 -64,-414 0,-614l850 -2640c125,-388 2,-813 -311,-1076 -313,-261 -753,-307 -1113,-115l-5005 2665c-2467,-1785 -4928,-2907 -7296,-3522 -38,-474 -166,-1081 -535,-1543 -581,-724 -4254,335 -6041,1032 -968,98 -1897,271 -2780,500 960,1528 1517,3335 1517,5272 0,1871 -519,3623 -1421,5118 1311,333 2722,540 4206,567 57,87 127,167 211,234l1973 1575c419,335 1027,280 1380,-124l282 -324c210,-240 292,-567 221,-879 -70,-312 -286,-571 -580,-698l-81 -35c2950,-494 6083,-1742 9224,-4077l4725 2516c360,191 800,146 1113,-116 313,-262 436,-688 311,-1075l-850 -2641z"/>
  </g>
 </g>
</svg>
