<?xml version="1.0" encoding="UTF-8"?>
<!DOCTYPE svg PUBLIC "-//W3C//DTD SVG 1.1//EN" "http://www.w3.org/Graphics/SVG/1.1/DTD/svg11.dtd">
<!-- Creator: CorelDRAW 2017 -->
<svg xmlns="http://www.w3.org/2000/svg" xml:space="preserve" width="320px" height="150px" version="1.1" shape-rendering="geometricPrecision" text-rendering="geometricPrecision" image-rendering="optimizeQuality" fill-rule="evenodd" clip-rule="evenodd"
viewBox="0 0 31515 14763"
 xmlns:xlink="http://www.w3.org/1999/xlink">
 <g id="Layer_x0020_1">
  <metadata id="CorelCorpID_0Corel-Layer"/>
  <g id="_2754854519040">
   <path fill="#1B1B1B" d="M7435 2046c-3547,1122 -6232,3145 -7435,4913 1214,1785 3936,3827 7530,4942 902,-1399 1426,-3063 1426,-4853 0,-1853 -560,-3573 -1521,-5002zm-2603 5134c-513,0 -927,-415 -927,-927 0,-514 414,-928 927,-928 513,0 928,414 928,928 0,512 -415,927 -928,927z"/>
   <path fill="#1B1B1B" d="M30617 7090c-65,-199 -65,-415 0,-615l850 -2640c125,-389 2,-814 -311,-1076 -313,-262 -754,-307 -1113,-116l-5006 2666c-2468,-1786 -4929,-2907 -7298,-3522 -38,-475 -166,-1082 -535,-1544 -581,-724 -4255,336 -6043,1032 -967,98 -1897,271 -2780,500 960,1528 1517,3336 1517,5273 0,1872 -519,3624 -1421,5120 1311,333 2723,539 4207,567 56,87 127,167 211,234l1973 1575c419,335 1028,280 1381,-124l282 -324c209,-240 292,-567 221,-879 -70,-312 -287,-571 -580,-698l-82 -36c2951,-493 6085,-1741 9227,-4078l4726 2517c359,192 800,147 1113,-116 313,-262 436,-688 311,-1075l-850 -2641z"/>
  </g>
 </g>
</svg>
