<svg xmlns="http://www.w3.org/2000/svg" xml:space="preserve" width="48" height="63.597" viewBox="0 0 12.7 16.827">
  <g style="clip-rule:evenodd;fill-rule:evenodd;image-rendering:optimizeQuality;shape-rendering:geometricPrecision;text-rendering:geometricPrecision">
    <path fill="#aaa" d="M6.261 8.848V.233c.016.746.199 3.108 1.805 4.412 1.925 1.563 2.36 3.997 2.36 3.997s.216-1.661-.435-4.322c0 0 4.093 4.248 2.217 8.991 0 0-1.529 3.529-5.671 3.516 2.16-.056 3.153-2.117 3.153-2.117 1.904-3.66-.273-6.253-.273-6.253.059 1.336-.545 1.685-1.031 1.756a1.458 1.458 0 0 1-.902-.187A3.005 3.005 0 0 1 6.26 8.848z"/>
    <path fill="#ff8442" d="M6.261 8.848V.233c-.002-.148 0-.233 0-.233C2.555 3.682 2.17 8.449 2.17 8.449c-.29-.87.336-4.02.336-4.02-1.156.82-5.51 9.535.966 11.821.992.35 1.883.524 2.685.566-.537-.042-1.138-.209-1.804-.55 0 0-2.246-1.069-2.12-3.746.035-.72.284-1.407.678-2.01.278-.424.659-1.132 1.018-2.204 0 0 .646 1.058-.108 2.931a.89.89 0 0 0 .016.717c.119.243.378.468.936.38 1.111-.171.566-2.15.566-2.15s-.915-3.489.841-5.166c0 0-.846 2.185.082 3.83z"/>
    <path fill="#ffe53d" d="M6.261 8.848v7.973c-.034 0-.068-.002-.105-.005-.537-.042-1.138-.209-1.804-.55 0 0-2.246-1.069-2.12-3.746.035-.72.284-1.407.678-2.01.278-.424.659-1.132 1.018-2.204 0 0 .646 1.058-.108 2.931a.89.89 0 0 0 .016.717c.119.243.378.468.936.38 1.111-.171.566-2.15.566-2.15s-.915-3.489.841-5.166c0 0-.846 2.185.082 3.83z"/>
  </g>
</svg>
