<svg xmlns="http://www.w3.org/2000/svg" xml:space="preserve" width="35.988" height="47.716" viewBox="0 0 9.522 12.625">
  <path fill="#aaa" d="M142 251s-36 178-19 227c0 0 22-270 232-478 0 0-7 175 102 263 109 89 133 226 133 226s13-94-24-244c0 0 231 240 125 509 0 0-86 200-321 199 122-3 179-120 179-120 108-207-16-354-16-354 4 76-31 95-58 99-18 3-36-2-51-10-152-83-74-284-74-284-99 95-48 293-48 293s31 112-32 121c-31 5-46-7-53-21-6-13-6-28-1-41 43-106 7-166 7-166-21 61-43 101-58 125-22 34-37 73-39 114-7 152 120 212 120 212 38 19 72 29 102 31-45-2-95-12-151-32-367-129-121-623-55-669Z" style="clip-rule:evenodd;fill-rule:evenodd;image-rendering:optimizeQuality;shape-rendering:geometricPrecision;text-rendering:geometricPrecision" transform="matrix(.01325 0 0 .01325 0 0)"/>
</svg>
