<?xml version="1.0" encoding="UTF-8"?>
<!DOCTYPE svg PUBLIC "-//W3C//DTD SVG 1.1//EN" "http://www.w3.org/Graphics/SVG/1.1/DTD/svg11.dtd">
<!-- Creator: CorelDRAW 2017 -->
<svg xmlns="http://www.w3.org/2000/svg" xml:space="preserve" width="295px" height="500px" version="1.1" shape-rendering="geometricPrecision" text-rendering="geometricPrecision" image-rendering="optimizeQuality" fill-rule="evenodd" clip-rule="evenodd"
viewBox="0 0 46540 78807"
 xmlns:xlink="http://www.w3.org/1999/xlink">
 <g id="Layer_x0020_1">
  <metadata id="CorelCorpID_0Corel-Layer"/>
  <g id="_2581229968688">
   <path fill="#D9D9D9" d="M21295 9716c0,1237 -758,2891 -1767,2891 -2079,0 -3113,-3208 -2922,-4923 88,-788 353,-1719 353,-2304 -492,131 -1275,1629 -1493,2201 -317,836 -515,2144 -515,3259 0,3422 1927,4357 1927,7227 0,738 -524,1445 -1365,1445 -3240,0 43,-5421 -3613,-7869 42,511 401,1042 401,1606 0,2368 -1525,4411 -1525,7146 0,936 1209,4947 -457,4325 -634,-237 -1153,-907 -1404,-1581 -351,-944 -89,-1567 -66,-2583 -737,267 -1964,4162 -1767,5621l438 3779c1837,-5 3630,-5 5424,-5 3695,0 2569,553 2569,-2731 0,-2115 579,-2772 643,-3533 447,329 -165,1413 502,3192 872,2324 2629,2214 2629,984 0,-1247 -963,-2651 -963,-4818 0,-2435 1320,-4870 2890,-5701 -27,331 -460,1197 -597,1732 -152,599 -286,1420 -286,2122 0,4059 3613,4877 3613,2008 0,-933 44,-648 -160,-1526 595,399 1534,2267 1445,3372l-229 3287c144,288 532,487 871,487 541,0 884,-1157 884,-1846 762,203 803,2211 803,2971l6664 -98 554 -3103c111,-1782 -746,-5335 -1919,-6194l81 1606c-91,2333 -2570,3079 -2570,722 0,-1686 1180,-2869 975,-5390 -126,-1546 -957,-4283 -2019,-4566 -307,1320 111,2990 -421,4316 -758,1886 -3192,3364 -3192,1465 0,-811 591,-1676 861,-2350 2579,-6432 -3589,-9832 -4645,-13458 -344,-1180 -70,-1651 -70,-2901 -1259,293 -2276,2600 -1819,4388 443,1730 1257,3178 1257,5328z"/>
   <path fill="#D9D9D9" d="M7382 64304c-4005,0 -7251,3247 -7251,7252 0,4005 3246,7251 7251,7251 3710,0 6769,-2786 7200,-6380l19515 0 2067 4856c907,2130 4761,1688 3451,-1416l-9889 -23433c3984,-1302 9931,-6624 11402,-12607l3498 -35c2557,2 2482,-3097 195,-3097l-2890 0c0,-3001 1204,-1503 1204,-3131 -19,-888 -397,-1132 -1387,-1132l-41009 88c-347,0 -847,848 -718,1280 207,692 793,764 970,1197 165,400 240,1042 369,1885 1144,7489 5929,12547 12547,15873l-5000 11710c-492,-105 -1002,-161 -1525,-161zm0 4807c1351,0 2445,1094 2445,2445 0,1350 -1094,2445 -2445,2445 -1350,0 -2445,-1095 -2445,-2445 0,-1351 1095,-2445 2445,-2445zm6612 -539c-419,-925 -1026,-1747 -1773,-2416l5460 -12357c3354,538 5377,308 8435,-121l6340 14894 -18462 0zm-7875 -29949c0,-767 268,-723 722,-723 636,0 1562,2125 1938,2639 251,344 1916,2448 1916,2660 0,293 -337,723 -722,723 -1050,0 -3854,-4094 -3854,-5299z"/>
  </g>
 </g>
</svg>
