<?xml version="1.0" encoding="UTF-8"?>
<!DOCTYPE svg PUBLIC "-//W3C//DTD SVG 1.1//EN" "http://www.w3.org/Graphics/SVG/1.1/DTD/svg11.dtd">
<!-- Creator: CorelDRAW 2017 -->
<svg xmlns="http://www.w3.org/2000/svg" xml:space="preserve" width="63px" height="100px" version="1.1" shape-rendering="geometricPrecision" text-rendering="geometricPrecision" image-rendering="optimizeQuality" fill-rule="evenodd" clip-rule="evenodd"
viewBox="0 0 8977 14216"
 xmlns:xlink="http://www.w3.org/1999/xlink">
 <g id="Layer_x0020_1">
  <metadata id="CorelCorpID_0Corel-Layer"/>
  <path fill="none" d="M2559 878c-252,313 -285,30 -443,256 -90,136 -58,212 91,316l6185 4273c52,36 216,-39 242,-118 41,-126 -39,-198 -21,-282 17,-77 73,-182 142,-322 635,-1298 -140,-2827 -1684,-3911l185 -267c49,-10 94,-39 125,-84 65,-93 42,-221 -51,-286 -94,-65 -222,-42 -287,52 -32,46 -43,101 -34,153l-184 266c-1364,-894 -3089,-1510 -4266,-46zm5661 3363c-80,116 -116,81 -185,34 -95,-67 -13,-484 -16,-600 -1,-78 -32,-569 -10,-601 30,-44 126,-74 184,-34 158,110 153,1020 27,1201z"/>
  <path fill="#1B1B1B" d="M7178 11557c735,0 1330,595 1330,1330 0,734 -595,1329 -1330,1329 -680,0 -1240,-511 -1319,-1170l-3578 0 -379 891c-166,390 -873,309 -633,-260l1813 -4296c-730,-238 -1820,-1214 -2090,-2311l-641 -6c-469,0 -455,-568 -36,-568l530 0c0,-550 -221,-275 -221,-574 4,-163 73,-208 254,-208l7518 17c64,0 156,155 132,234 -38,127 -145,140 -178,220 -30,73 -44,191 -68,345 -209,1373 -1087,2300 -2300,2910l917 2147c90,-19 184,-30 279,-30zm0 881c-247,0 -448,201 -448,449 0,247 201,448 448,448 248,0 449,-201 449,-448 0,-248 -201,-449 -449,-449zm-1212 -98c77,-170 188,-321 325,-443l-1001 -2266c-614,99 -985,57 -1546,-22l-1162 2731 3384 0zm1444 -5491c0,-140 -49,-132 -132,-132 -117,0 -287,389 -356,484 -46,63 -351,449 -351,487 0,54 62,133 132,133 193,0 707,-751 707,-972z"/>
  <path fill="#1B1B1B" d="M834 5100c-29,401 -218,187 -218,463 4,163 73,208 255,208l7517 -16c64,0 156,-156 132,-235 -38,-127 -145,-140 -178,-220 -30,-73 -44,-191 -67,-345 -219,-1429 -1727,-2243 -3614,-2253l0 -325c35,-36 56,-86 56,-140 0,-114 -93,-206 -206,-206 -114,0 -206,92 -206,206 0,57 23,108 60,145l0 323c-1630,44 -3399,522 -3531,2395zm6568 -464c0,140 -49,132 -132,132 -117,0 -287,-389 -356,-484 -46,-63 -351,-448 -351,-487 0,-54 62,-133 133,-133 192,0 706,751 706,972z"/>
 </g>
</svg>
