<?xml version="1.0" encoding="UTF-8"?>
<!DOCTYPE svg PUBLIC "-//W3C//DTD SVG 1.1//EN" "http://www.w3.org/Graphics/SVG/1.1/DTD/svg11.dtd">
<!-- Creator: CorelDRAW 2017 -->
<svg xmlns="http://www.w3.org/2000/svg" xml:space="preserve" width="502px" height="500px" version="1.1" shape-rendering="geometricPrecision" text-rendering="geometricPrecision" image-rendering="optimizeQuality" fill-rule="evenodd" clip-rule="evenodd"
viewBox="0 0 79197 78917"
 xmlns:xlink="http://www.w3.org/1999/xlink">
 <g id="Layer_x0020_1">
  <metadata id="CorelCorpID_0Corel-Layer"/>
  <path fill="#D9D9D9" d="M12562 54237c-6815,0 -12340,5525 -12340,12340 0,6815 5525,12340 12340,12340 6313,0 11519,-4741 12251,-10856l33210 0 3517 8262c1543,3625 8102,2872 5873,-2409l-16829 -39877c6780,-2215 16901,-11271 19403,-21452l5952 -60c4352,4 4224,-5269 333,-5269l-4919 0c0,-5108 2050,-2558 2050,-5329 -33,-1511 -677,-1927 -2360,-1927l-69786 150c-590,0 -1441,1443 -1222,2178 353,1178 1350,1301 1652,2038 280,681 407,1772 627,3207 1947,12744 10090,21351 21352,27011l-8510 19927c-836,-179 -1704,-274 -2594,-274zm0 8179c2298,0 4161,1863 4161,4161 0,2298 -1863,4161 -4161,4161 -2298,0 -4161,-1863 -4161,-4161 0,-2298 1863,-4161 4161,-4161zm11251 -916c-712,-1575 -1745,-2973 -3016,-4112l9291 -21028c5706,917 9149,524 14354,-205l10789 25345 -31418 0zm-13401 -50965c0,-1305 457,-1230 1230,-1230 1082,0 2658,3617 3297,4491 427,585 3261,4167 3261,4528 0,497 -574,1229 -1229,1229 -1787,0 -6559,-6966 -6559,-9018z"/>
 </g>
</svg>
