<?xml version="1.0" encoding="UTF-8"?>
<!DOCTYPE svg PUBLIC "-//W3C//DTD SVG 1.1//EN" "http://www.w3.org/Graphics/SVG/1.1/DTD/svg11.dtd">
<!-- Creator: CorelDRAW 2017 -->
<svg xmlns="http://www.w3.org/2000/svg" xml:space="preserve" width="1003px" height="1000px" version="1.1" shape-rendering="geometricPrecision" text-rendering="geometricPrecision" image-rendering="optimizeQuality" fill-rule="evenodd" clip-rule="evenodd"
viewBox="0 0 158237 157677"
 xmlns:xlink="http://www.w3.org/1999/xlink">
 <g id="Layer_x0020_1">
  <metadata id="CorelCorpID_0Corel-Layer"/>
  <path fill="#1B1B1B" d="M25100 108366c-13617,0 -24655,11039 -24655,24656 0,13616 11038,24655 24655,24655 12613,0 23013,-9473 24477,-21692l66353 0 7028 16509c3082,7241 16187,5738 11734,-4813l-33625 -79675c13547,-4425 33767,-22520 38767,-42862l11893 -119c8695,8 8440,-10528 666,-10528l-9829 0c0,-10205 4095,-5111 4095,-10647 -66,-3018 -1351,-3850 -4715,-3850l-139432 301c-1178,0 -2880,2883 -2441,4351 704,2353 2696,2599 3300,4071 559,1361 814,3541 1252,6408 3891,25463 20160,42660 42662,53967l-17002 39816c-1672,-358 -3405,-548 -5183,-548zm0 16342c4591,0 8313,3722 8313,8314 0,4591 -3722,8313 -8313,8313 -4592,0 -8314,-3722 -8314,-8313 0,-4592 3722,-8314 8314,-8314zm22478 -1830c-1422,-3147 -3486,-5941 -6025,-8217l18563 -42013c11402,1831 18280,1046 28679,-411l21556 50641 -62773 0zm-26775 -101829c0,-2607 913,-2457 2457,-2457 2162,0 5311,7226 6588,8973 854,1168 6516,8325 6516,9046 0,993 -1147,2457 -2457,2457 -3570,0 -13104,-13919 -13104,-18019z"/>
 </g>
</svg>
