<?xml version="1.0" encoding="UTF-8"?>
<!DOCTYPE svg PUBLIC "-//W3C//DTD SVG 1.1//EN" "http://www.w3.org/Graphics/SVG/1.1/DTD/svg11.dtd">
<!-- Creator: CorelDRAW 2017 -->
<svg xmlns="http://www.w3.org/2000/svg" xml:space="preserve" width="591px" height="1000px" version="1.1" shape-rendering="geometricPrecision" text-rendering="geometricPrecision" image-rendering="optimizeQuality" fill-rule="evenodd" clip-rule="evenodd"
viewBox="0 0 93238 157881"
 xmlns:xlink="http://www.w3.org/1999/xlink">
 <g id="Layer_x0020_1">
  <metadata id="CorelCorpID_0Corel-Layer"/>
  <path fill="#1B1B1B" d="M42661 19465c0,2478 -1518,5791 -3539,5791 -4164,0 -6236,-6426 -5853,-9863 175,-1578 706,-3443 706,-4615 -985,263 -2554,3264 -2990,4410 -636,1675 -1032,4296 -1032,6529 0,6856 3861,8728 3861,14478 0,1479 -1051,2895 -2735,2895 -6492,0 85,-10860 -7239,-15765 85,1024 804,2088 804,3218 0,4744 -3056,8837 -3056,14317 0,1874 2424,9909 -915,8663 -1270,-474 -2311,-1817 -2812,-3167 -703,-1891 -179,-3139 -134,-5175 -1475,535 -3935,8338 -3539,11261l878 7572c3680,-11 7273,-11 10865,-11 7403,0 5148,1108 5148,-5470 0,-4237 1160,-5554 1287,-7078 897,657 -331,2829 1006,6394 1747,4657 5268,4436 5268,1971 0,-2498 -1931,-5310 -1931,-9652 0,-4879 2645,-9756 5791,-11421 -55,664 -922,2398 -1195,3469 -307,1201 -574,2846 -574,4252 0,8131 7239,9771 7239,4022 0,-1868 88,-1298 -322,-3057 1193,800 3074,4542 2896,6757l-459 6584c288,576 1066,976 1746,976 1082,0 1769,-2318 1769,-3699 1527,407 1609,4430 1609,5952l13350 -197 1110 -6215c223,-3570 -1494,-10688 -3843,-12410l161 3218c-182,4674 -5148,6169 -5148,1447 0,-3379 2365,-5749 1954,-10798 -253,-3097 -1917,-8581 -4045,-9149 -616,2645 223,5991 -844,8647 -1518,3779 -6395,6741 -6395,2936 0,-1625 1184,-3359 1726,-4709 5165,-12884 -7190,-19697 -9308,-26961 -689,-2364 -140,-3308 -140,-5812 -2521,587 -4559,5208 -3642,8790 886,3466 2516,6368 2516,10675z"/>
  <path fill="#1B1B1B" d="M14790 128826c-8024,0 -14528,6504 -14528,14528 0,8023 6504,14527 14528,14527 7432,0 13560,-5581 14422,-12781l39098 0 4141 9728c1816,4266 9538,3380 6914,-2837l-19813 -46946c7982,-2608 19897,-13270 22843,-25256l7008 -70c5123,4 4972,-6204 392,-6204l-5791 0c0,-6013 2412,-3012 2412,-6274 -39,-1778 -796,-2268 -2778,-2268l-82158 177c-694,0 -1697,1699 -1438,2564 414,1387 1588,1532 1944,2399 330,802 480,2086 738,3776 2293,15003 11879,25136 25138,31799l-10019 23461c-984,-211 -2006,-323 -3053,-323zm0 9629c2705,0 4898,2193 4898,4899 0,2705 -2193,4899 -4898,4899 -2706,0 -4899,-2194 -4899,-4899 0,-2706 2193,-4899 4899,-4899zm13245 -1078c-838,-1854 -2055,-3501 -3551,-4842l10938 -24756c6718,1080 10772,617 16899,-242l12701 29840 -36987 0zm-15777 -60001c0,-1537 538,-1448 1448,-1448 1273,0 3129,4258 3882,5288 503,688 3839,4905 3839,5329 0,586 -676,1448 -1448,1448 -2103,0 -7721,-8201 -7721,-10617z"/>
 </g>
</svg>
