<?xml version="1.0" encoding="UTF-8"?>
<!DOCTYPE svg PUBLIC "-//W3C//DTD SVG 1.1//EN" "http://www.w3.org/Graphics/SVG/1.1/DTD/svg11.dtd">
<!-- Creator: CorelDRAW 2017 -->
<svg xmlns="http://www.w3.org/2000/svg" xml:space="preserve" width="200px" height="150px" version="1.1" shape-rendering="geometricPrecision" text-rendering="geometricPrecision" image-rendering="optimizeQuality" fill-rule="evenodd" clip-rule="evenodd"
viewBox="0 0 20001 15017"
 xmlns:xlink="http://www.w3.org/1999/xlink">
 <g id="Layer_x0020_1">
  <metadata id="CorelCorpID_0Corel-Layer"/>
  <path fill="#D9D9D9" d="M245 3380l1802 -1801c365,-365 865,-572 1381,-572l1119 0c-8,-182 64,-373 207,-516 277,-278 1119,-674 1389,-397 277,278 -127,1120 -397,1389 -32,32 -72,64 -103,88l1579 1563 8898 0c2016,0 3691,1516 3865,3485 16,182 -127,341 -309,341l-302 0 0 2580 627 1413 0 3286 -436 778 -1358 0 739 -1024 -326 -1850 -1690 -1921 -723 4033 -428 762 -1413 0 754 -1008 198 -1874 -1325 -1444c-1326,158 -2834,262 -4469,230l-571 3302 -461 786 -1325 0 706 -1024 0 -3143c-270,-24 -548,-48 -818,-80l-595 3461 -460 786 -1326 0 707 -1024 0 -3747c-2247,-2016 -2636,-5421 -2636,-5421l-1889 0c-309,0 -595,-167 -746,-444 -190,-326 -127,-731 135,-993z"/>
 </g>
</svg>
