<?xml version="1.0" encoding="UTF-8"?>
<!DOCTYPE svg PUBLIC "-//W3C//DTD SVG 1.1//EN" "http://www.w3.org/Graphics/SVG/1.1/DTD/svg11.dtd">
<!-- Creator: CorelDRAW 2017 -->
<svg xmlns="http://www.w3.org/2000/svg" xml:space="preserve" width="705556px" height="529167px" version="1.1" shape-rendering="geometricPrecision" text-rendering="geometricPrecision" image-rendering="optimizeQuality" fill-rule="evenodd" clip-rule="evenodd"
viewBox="0 0 70560093 52975323"
 xmlns:xlink="http://www.w3.org/1999/xlink">
 <g id="Layer_x0020_1">
  <metadata id="CorelCorpID_0Corel-Layer"/>
  <path fill="#1B1B1B" d="M865108 11925553l6356283 -6356283c1288061,-1288061 3052143,-2016079 4872205,-2016079l3948170 0c-28007,-644031 224024,-1316068 728019,-1820063 980049,-980049 3948170,-2380105 4900212,-1400056 980049,980050 -448014,3948171 -1400056,4900213 -111995,111995 -251997,224024 -364026,308012l5572250 5516235 31389314 0c7112308,0 13020577,5348227 13636600,12292526 56014,644030 -448014,1204039 -1092044,1204039l-1064037 0 0 9100380 2212095 4984200 0 11592514 -1540058 2744132 -4788217 0 2604129 -3612152 -1148059 -6524292 -5964249 -6776290 -2548115 14224617 -1512051 2688117 -4984234 -34 2660110 -3556171 700044 -6608280 -4676188 -5096230c-4676189,560009 -9996442,924035 -15764641,812040l-2016079 11648495 -1624080 2772105 -4676256 67 2492100 -3612151 0 -11088486c-952042,-83988 -1932091,-168010 -2884133,-280005l-2100101 12208538 -1624080 2772104 -4676155 0 2492100 -3612151 0 -13216560c-7924348,-7112275 -9296396,-19124795 -9296396,-19124795l-6664295 -34c-1092044,0 -2100100,-588016 -2632102,-1568066 -672038,-1148058 -448048,-2576121 476021,-3500156z"/>
 </g>
</svg>
