<?xml version="1.0" encoding="UTF-8"?>
<!DOCTYPE svg PUBLIC "-//W3C//DTD SVG 1.1//EN" "http://www.w3.org/Graphics/SVG/1.1/DTD/svg11.dtd">
<!-- Creator: CorelDRAW 2017 -->
<svg xmlns="http://www.w3.org/2000/svg" xml:space="preserve" width="274px" height="150px" version="1.1" shape-rendering="geometricPrecision" text-rendering="geometricPrecision" image-rendering="optimizeQuality" fill-rule="evenodd" clip-rule="evenodd"
viewBox="0 0 27510 15048"
 xmlns:xlink="http://www.w3.org/1999/xlink">
 <g id="Layer_x0020_1">
  <metadata id="CorelCorpID_0Corel-Layer"/>
  <path fill="#1B1B1B" d="M1151 6467l0 109 1874 -1874c-954,-263 -1797,-1524 -1797,-2565l4044 384 877 -877c1074,-997 2488,-1644 4044,-1644l384 0 12144 252c1545,175 2378,811 3068,1469 0,0 877,723 998,-154 -33,-646 -1052,-975 -1052,-975 1030,-384 1775,175 1775,1129 0,570 -263,1074 -690,1370 460,844 690,1753 690,2751l0 1337 0 493 0 5886 -1030 1490 -1874 0 1370 -1983 -1151 -1568 -2488 3551 -1874 0 1874 -2674 -1469 -2071c-1600,526 -3233,1118 -5118,1118 -395,0 -800,-22 -1217,-77l-657 1216 0 954 -1031 1491 -1874 0 1370 -1984 -712 -2269c-252,-66 241,66 0,0l-2992 4264 -1875 0 1371 -1984 0 -3551 -6226 0c-1030,0 -1907,-844 -1907,-1907l0 -1107 1151 0z"/>
 </g>
</svg>
