<?xml version="1.0" encoding="UTF-8"?>
<!DOCTYPE svg PUBLIC "-//W3C//DTD SVG 1.1//EN" "http://www.w3.org/Graphics/SVG/1.1/DTD/svg11.dtd">
<!-- Creator: CorelDRAW 2017 -->
<svg xmlns="http://www.w3.org/2000/svg" xml:space="preserve" width="479778px" height="529167px" version="1.1" shape-rendering="geometricPrecision" text-rendering="geometricPrecision" image-rendering="optimizeQuality" fill-rule="evenodd" clip-rule="evenodd"
viewBox="0 0 77018882 84821379"
 xmlns:xlink="http://www.w3.org/1999/xlink">
 <g id="Layer_x0020_1">
  <metadata id="CorelCorpID_0Corel-Layer"/>
  <g id="_2306496275120">
   <path fill="#1B1B1B" d="M47200952 62260367c3000964,-34140 5510078,-870800 7073193,-2506010l83238 49862 236742 -411309c200515,-245798 384342,-503654 544561,-781201 159202,-275257 291234,-562267 403219,-856146l4804178 -8320093 623425 -1080371 706612 -1221867c10227,-17859 18876,-36175 28950,-53983l14399561 -24943690c1607431,-2783456 975865,-6288583 -963909,-9537431 -1939825,-3248849 -5229936,-6401179 -9446306,-8835398 -4216217,-2434220 -8588277,-3705542 -12371765,-3760898 -3783794,-55815 -7136894,1147685 -8743917,3931089l-14433345 24997622 -615080 1063887 -615182 1072231 -4858009 8411471c-221020,263708 -420619,546546 -594423,847802 -171565,296780 -310924,604142 -428201,922493l-108016 182861 37498 20758c-1632005,4977932 3062324,12282676 11170962,16964337 4509587,2603597 9194708,3888147 13065963,3844137l51 -153zm-4384576 -2568388c-630751,-5851 -1385190,-220766 -2111034,-639909 -1451689,-838085 -2244033,-2180332 -1770448,-3000558 473686,-820124 2035071,-804860 3486912,33224 1451689,838237 2243880,2180332 1770296,3000609 -236996,410138 -744721,612688 -1375726,606837l0 -203zm7592874 -1009751c-631006,-5851 -1381323,-221020 -2107168,-640062 -1451688,-837779 -2248153,-2180027 -1774619,-3000150 473839,-820531 2035223,-805115 3486912,33224 1451689,837830 2244033,2180077 1770448,3000201 -236741,410291 -744721,612790 -1375624,606939l51 -152zm-17687281 -4816797c-631006,-5698 -1381323,-220765 -2107168,-639655 -1451688,-838338 -2248103,-2180484 -1774569,-3000709 473839,-820277 2035224,-809083 3486913,29255 1451689,837830 2243982,2184351 1770397,3004577 -236691,409985 -744721,612536 -1375573,606685l0 -153zm25637379 -15334977c1298593,2049216 2499497,5046567 1163661,7360050l-3964721 6865453 -153 -51c-480911,-1622033 -1375726,-3313313 -2626492,-4970249 -3176701,-3988582 -6592790,-6411812 -9408757,-7898150 -4240588,-2238283 -10486025,-3975710 -15185240,-2853312l3960345 -6861179c667893,-1156690 1909247,-1984802 3619911,-2396060 4029592,-968793 9089693,538456 12667629,2329256 4063477,2033748 7720327,5064833 9773817,8424242zm-18568308 14021884c-630853,-5851 -1385291,-220766 -2111136,-640062 -1451689,-838084 -2244032,-2184300 -1770448,-3004577 473687,-820226 2035072,-804962 3486913,33275 1451638,838084 2243880,2184453 1770295,3004679 -236996,409985 -744720,612587 -1375726,606736l102 -51zm7929390 -1354917c-630904,-5851 -1381221,-220765 -2107065,-639909 -1451689,-838084 -2244033,-2180332 -1770296,-3000557 473382,-820124 2030696,-808981 3482487,29255 1451943,838085 2248306,2184301 1774721,3004577 -236690,410138 -748689,612689 -1379694,606838l-153 -204zm-18443704 -4716717c-630751,-5902 -1385190,-221070 -2111187,-640061 -1451688,-837830 -2243880,-2180078 -1770295,-3000202 473432,-820530 2034970,-805114 3486913,33276 1451536,837778 2243880,2180026 1770041,3000201 -236742,410240 -744721,612790 -1375370,606939l-102 -153zm8353317 -1113799c-630904,-6004 -1385343,-216797 -2111187,-635940 -1451689,-838237 -2244033,-2184453 -1770448,-3004730 473737,-820225 2035071,-804962 3486913,33275 1451689,838084 2243880,2184453 1770295,3004730 -236945,409985 -744721,608415 -1375726,602411l153 254z"/>
   <path fill="#1B1B1B" d="M32477392 76937169c0,1236012 -1003137,2239098 -2238894,2239098 -1235808,0 -2239097,-1003086 -2239097,-2239098 0,-1235960 1003086,-2238893 2239097,-2238893 1235960,0 2238894,1003136 2238894,2238893z"/>
   <path fill="#1B1B1B" d="M44856993 69513266c0,1235960 -1003086,2239097 -2239098,2239097 -1235808,0 -2235739,-1003137 -2235739,-2239097 0,-1236012 999931,-2238894 2235739,-2238894 1235961,-51 2239098,1003086 2239098,2238894z"/>
   <path fill="#1B1B1B" d="M14240716 77629891c0,1236012 -999983,2239098 -2235790,2239098 -1235757,0 -2238894,-1003086 -2238894,-2239098 0,-1236011 1003137,-2238893 2238894,-2238893 1235807,0 2235790,1003086 2235790,2238893z"/>
   <path fill="#1B1B1B" d="M23600222 61362296c0,1232450 -1003137,2235536 -2238894,2235536 -1235808,0 -2239097,-1003086 -2239097,-2235536 0,-1239166 1003086,-2239097 2239097,-2239097 1235960,0 2238894,999931 2238894,2239097z"/>
   <path fill="#1B1B1B" d="M12218619 62552821c0,1236012 -1003086,2239098 -2239098,2239098 -1235807,0 -2235739,-1003086 -2235739,-2239098 0,-1236011 999932,-2235739 2235739,-2235739 1236012,0 2239098,999931 2239098,2235739z"/>
   <path fill="#1B1B1B" d="M32611662 64937790c0,1236011 -999982,2239097 -2235739,2239097 -1235808,0 -2238894,-1003086 -2238894,-2239097 0,-1236012 1003086,-2235740 2238894,-2235740 1235757,0 2235739,999932 2235739,2235740z"/>
   <path fill="#1B1B1B" d="M22732831 71429788c0,1235960 -1003086,2239097 -2239097,2239097 -1235808,0 -2235740,-1003137 -2235740,-2239097 0,-1236012 999932,-2235790 2235740,-2235790 1236011,0 2239097,999982 2239097,2235790z"/>
   <path fill="#1B1B1B" d="M21994877 82582281c0,1236012 -1003086,2239098 -2239097,2239098 -1235808,0 -2235739,-1003086 -2235739,-2239098 0,-1236011 999931,-2235739 2235739,-2235739 1236011,0 2239097,999931 2239097,2235739z"/>
   <path fill="#1B1B1B" d="M46764458 79459207c0,1235960 -1003136,2239097 -2239148,2239097 -1235757,0 -2235739,-1003137 -2235739,-2239097 0,-1236012 999982,-2235791 2235739,-2235791 1236012,0 2239148,999983 2239148,2235791z"/>
   <path fill="#1B1B1B" d="M4474837 82508608c0,1236011 -1003086,2239097 -2239098,2239097 -1235808,0 -2235739,-1003086 -2235739,-2239097 0,-1236011 999931,-2235739 2235739,-2235739 1236012,0 2239098,999931 2239098,2235739z"/>
   <path fill="#1B1B1B" d="M37720099 82498737c0,1236012 -1003086,2239098 -2239097,2239098 -1235808,0 -2235740,-1003086 -2235740,-2239098 0,-1236011 999932,-2235739 2235740,-2235739 1236011,0 2239097,999932 2239097,2235739z"/>
  </g>
 </g>
</svg>
