<?xml version="1.0" encoding="UTF-8"?>
<!DOCTYPE svg PUBLIC "-//W3C//DTD SVG 1.1//EN" "http://www.w3.org/Graphics/SVG/1.1/DTD/svg11.dtd">
<!-- Creator: CorelDRAW 2017 -->
<svg xmlns="http://www.w3.org/2000/svg" xml:space="preserve" width="147px" height="150px" version="1.1" shape-rendering="geometricPrecision" text-rendering="geometricPrecision" image-rendering="optimizeQuality" fill-rule="evenodd" clip-rule="evenodd"
viewBox="0 0 14746 15026"
 xmlns:xlink="http://www.w3.org/1999/xlink">
 <g id="Layer_x0020_1">
  <metadata id="CorelCorpID_0Corel-Layer"/>
  <g id="_2754854175296">
   <path fill="#1B1B1B" d="M1465 4106c144,40 293,-44 333,-188 40,-144 -44,-293 -188,-332 -201,-55 -383,-204 -447,-366 -42,-102 -66,-220 -66,-343 1,-220 74,-458 243,-669 169,-212 437,-403 845,-517 269,-75 694,-151 1179,-227 730,-115 1600,-234 2353,-383 377,-75 725,-156 1017,-252 292,-98 529,-198 705,-368 106,-104 106,-275 1,-381 -104,-106 -276,-107 -381,-2 -34,36 -127,97 -262,153 -237,101 -595,198 -1005,284 -617,130 -1355,240 -2037,343 -683,104 -1303,199 -1714,313 -502,139 -877,391 -1123,700 -246,307 -360,666 -360,1006 0,192 36,378 106,548 148,351 461,584 801,681z"/>
   <path fill="#1B1B1B" d="M4333 7696c-98,-112 -269,-123 -380,-25l-1667 1458c-113,98 -124,269 -26,380 98,113 269,124 381,26l1666 -1458c113,-98 124,-269 26,-381z"/>
   <path fill="#1B1B1B" d="M6174 7934c-98,-112 -269,-123 -381,-25l-1667 1459c-113,98 -124,268 -26,380 98,112 269,124 381,26l1668 -1459c112,-98 123,-268 25,-381z"/>
   <path fill="#1B1B1B" d="M7890 7739l-1699 1421c-114,96 -130,266 -34,381 95,114 266,129 380,33l1699 -1420c114,-96 129,-266 34,-381 -96,-114 -266,-129 -380,-34z"/>
   <path fill="#1B1B1B" d="M10929 7897c126,141 240,295 345,455l2739 -1648c-273,-465 -613,-893 -1007,-1275 -649,-628 -1444,-1130 -2317,-1477l-857 3106c416,203 788,491 1097,839z"/>
   <path fill="#1B1B1B" d="M5781 7028c38,0 73,-2 104,-5 1038,-100 1239,-167 2249,-271 107,-11 213,-16 318,-16 202,0 399,24 591,62l857 -3108c-322,-89 -649,-161 -983,-206 -486,-67 -984,-100 -1484,-100 -999,0 -2007,133 -2956,397 -2,1 -920,267 -1921,561 -1001,294 -2088,617 -2408,723 -40,13 -71,24 -72,24 -45,19 -73,54 -76,65l0 0 9 12c16,16 60,48 148,74 97,31 294,108 581,220 286,111 653,255 1062,410 819,311 1808,669 2641,903 553,156 1044,255 1340,255z"/>
   <path fill="#1B1B1B" d="M7459 13670l-2931 -1768 734 2558c55,16 127,36 220,61 208,56 504,131 857,206 368,78 799,155 1250,212l-232 -1250 102 -19z"/>
   <path fill="#1B1B1B" d="M10606 12981c-670,471 -1515,746 -2384,818l225 1211c134,6 269,16 403,16 82,0 164,-2 246,-5 1836,-62 3460,-928 4491,-2260l-1904 -1052c-233,515 -611,946 -1077,1272z"/>
   <path fill="#1B1B1B" d="M14373 7456l-2714 1633c178,452 276,941 276,1442 1,122 -8,240 -22,356l2138 1182c442,-795 695,-1708 695,-2691 0,-683 -137,-1325 -373,-1922z"/>
  </g>
 </g>
</svg>
